<?xml version="1.0" encoding="utf-8"?>
<!-- Generator: Adobe Illustrator 24.2.1, SVG Export Plug-In . SVG Version: 6.00 Build 0)  -->
<svg version="1.1" id="Capa_1" focusable="false" xmlns="http://www.w3.org/2000/svg" xmlns:xlink="http://www.w3.org/1999/xlink"
	 x="0px" y="0px" viewBox="0 0 640 512" style="enable-background:new 0 0 640 512;" xml:space="preserve">
<style type="text/css">
	.st0{fill:#00AEEF;}
</style>
<path class="st0" d="M480,192c26.5,0,48-21.5,48-48s-21.5-48-48-48s-48,21.5-48,48S453.5,192,480,192z M480,128c8.8,0,16,7.2,16,16
	s-7.2,16-16,16s-16-7.2-16-16S471.2,128,480,128z M480,224c-53,0-96,43-96,96s43,96,96,96s96-43,96-96C575.9,267,533,224.1,480,224z
	 M480,384c-35.3,0-64-28.7-64-64s28.7-64,64-64s64,28.7,64,64C544,355.3,515.3,384,480,384z M480,296c-13.3,0-24,10.7-24,24
	s10.7,24,24,24s24-10.7,24-24S493.3,296,480,296z M592,32H368c-26.5,0-48,21.5-48,48v352c0,26.5,21.5,48,48,48h224
	c26.5,0,48-21.5,48-48V80C640,53.5,618.5,32,592,32z M608,432c0,8.8-7.2,16-16,16H368c-8.8,0-16-7.2-16-16V80c0-8.8,7.2-16,16-16
	h224c8.8,0,16,7.2,16,16V432z M104,448c-4.4,0-8,3.6-8,8v16c0,4.4,3.6,8,8,8h200.4c-7.3-9.4-12.3-20.4-14.8-32H104z M0,64v288
	c0,17.7,14.3,32,32,32h256v-32H32V64h257.6c2.5-11.6,7.5-22.6,14.8-32H32C14.3,32,0,46.3,0,64z"/>
</svg>
