<?xml version="1.0" encoding="utf-8"?>
<!-- Generator: Adobe Illustrator 24.2.1, SVG Export Plug-In . SVG Version: 6.00 Build 0)  -->
<svg version="1.1" id="Capa_1" focusable="false" xmlns="http://www.w3.org/2000/svg" xmlns:xlink="http://www.w3.org/1999/xlink"
	 x="0px" y="0px" viewBox="0 0 512 512" style="enable-background:new 0 0 512 512;" xml:space="preserve">
<style type="text/css">
	.st0{fill:#00AEEF;}
</style>
<path class="st0" d="M217.6,512c-8.8,0-16-7.2-16-16s7.2-16,16-16c41.2,0,74.7-33.5,74.7-74.7c0-85.2,73.4-93.9,73.4-165.3
	c0-71.2-57.9-129.1-129.1-129.1c-71.2,0-129.1,57.9-129.1,129.1c0,8.8-7.2,16-16,16s-16-7.2-16-16c0-88.8,72.3-161.1,161.1-161.1
	S397.7,151.2,397.7,240c0,86.9-73.4,96-73.4,165.3C324.3,464.1,276.4,512,217.6,512z M333.3,240c0-53.8-43.8-97.6-97.6-97.6
	s-97.6,43.8-97.6,97.6c0,8.8,7.2,16,16,16s16-7.2,16-16c0-36.2,29.4-65.6,65.6-65.6s65.6,29.4,65.6,65.6c0,8.8,7.2,16,16,16
	S333.3,248.8,333.3,240z M439.8,194c8.4-2.6,13.2-11.5,10.6-20c-14.6-47.7-45.4-89.8-86.6-118.4c-7.3-5-17.2-3.3-22.3,4
	c-5,7.3-3.3,17.2,4,22.3c35.3,24.6,61.7,60.6,74.2,101.6C422.4,191.9,431.4,196.6,439.8,194L439.8,194z M500.7,175.4
	c8.4-2.6,13.2-11.5,10.6-20C492.4,93.8,452.9,39.6,400.1,2.9c-7.3-5-17.2-3.3-22.3,4c-5,7.3-3.3,17.2,4,22.3
	c47,32.7,82.1,80.9,98.9,135.6C483.3,173.2,492.2,178,500.7,175.4L500.7,175.4z M240,256c-8.8,0-16,7.2-16,16s7.2,16,16,16
	s16-7.2,16-16S248.8,256,240,256z M176,320c-8.8,0-16,7.2-16,16s7.2,16,16,16s16-7.2,16-16S184.8,320,176,320z M80,416
	c-8.8,0-16,7.2-16,16s7.2,16,16,16s16-7.2,16-16S88.8,416,80,416z M16,480c-8.8,0-16,7.2-16,16s7.2,16,16,16s16-7.2,16-16
	S24.8,480,16,480z M171.3,404.7l-64-64l-22.6,22.6l64,64L171.3,404.7z"/>
</svg>
