<?xml version="1.0" encoding="utf-8"?>
<!-- Generator: Adobe Illustrator 24.2.1, SVG Export Plug-In . SVG Version: 6.00 Build 0)  -->
<svg version="1.1" id="Capa_1" xmlns="http://www.w3.org/2000/svg" xmlns:xlink="http://www.w3.org/1999/xlink" x="0px" y="0px"
	 viewBox="0 0 392.2 99.7" style="enable-background:new 0 0 392.2 99.7;" xml:space="preserve">
<style type="text/css">
	.st0{fill:#FC8C25;}
	.st1{fill:#1DAFED;}
	.st2{fill:#FFFFFF;}
</style>
<g>
	<g>
		<g>
			<path class="st0" d="M12.9,76c-0.1-0.1-0.4-0.3-0.4-0.3S12.7,76,12.9,76z"/>
			<path class="st0" d="M94.9,48.6c-0.1-1.4-0.2-2.7-0.3-4.1c-0.2-2.1-0.5-4.2-0.9-6.3c-0.7-3.4-1.6-6.7-2.8-9.9
				c-1.7-4.3-3.9-8.3-6.8-11.9c-2.5-3-5.3-5.6-8.7-7.7c-2-1.2-4-2.2-6.2-2.9c-3.1-1-6.3-1.6-9.5-1.9c-1.8-0.2-3.6-0.4-5.4-0.5
				c-2.3-0.2-4.6-0.3-6.9-0.4C45.1,3,42.9,3,40.6,3.2c-1.7,0.1-3.5,0.3-5.2,0.6c-2.4,0.4-4.8,1.1-7.2,1.9c-4.8,1.8-9.1,4.5-12.7,8.2
				c-2.2,2.3-4,4.8-5.6,7.5c-1.6,2.8-2.8,5.8-3.6,8.9c-0.6,2.5-1,4.9-1.1,7.4c-0.1,2.5,0,4.9,0.2,7.1c0.4,2.4,1,4.8,1.8,7.2
				c1.9,5.4,4.7,10.2,8.5,14.4c2.7,3,5.7,5.5,9.2,7.4c4.1,2.3,8.5,3.4,13.2,3.5c2.1,0,4.1-0.1,6.2-0.4c1.8-0.2,3.6-0.6,5.4-1.1
				c3-0.8,5.8-2,8.5-3.5c2.9-1.6,5.5-3.7,7.7-6.3c2.5-3.1,4-6.7,4.2-10.7c0.2-2.1,0-4.1-0.4-6.1c-0.4-1.7-0.8-3.4-1.3-5
				c-0.6-2-1.4-3.9-2.6-5.6c-1.3-2-3.1-3.5-5.4-4.3c-1.7-0.6-3.4-0.8-5.2-0.9c-1.3-0.1-2.7,0-4,0.2c-1.9,0.2-3.8,0.6-5.7,1
				c-1.4,0.4-2.8,0.8-4.1,1.5c-1.2,0.7-2.5-0.6-3.3,0.6c-1,1.4-2.9,2.2-3,3.9c-0.1,1.4,0.1,7.4,0.3,8.7c0.4,2.4,3,2.7,4.4,4.6
				c1.1,1.5,2.5,1.8,5.6,1.9c-0.4,0-1.9-0.1-2.9-1.2c-1.7-1.6-3.1-3.4-4-5.5c-0.6-1.1-1-2.4-1-3.8c0-0.5,0.1-1,0.1-1.5
				c0.1-0.9,0.4-1.8,0.9-2.7c0.3-0.5,0.7-1,1.2-1.3c1.1-1,2.5-1.6,4-1.6c0.1,0,0.2,0,0.3,0c0.2,0,0.3-0.1,0.5-0.1
				c1-0.1,2.1-0.2,3.1-0.3c2.4-0.3,4.7-0.3,7.1-0.1c1.2,0.1,2.3,0.3,3.4,0.8c1,0.4,1.8,1,2.4,1.9c0.7,1.2,1.1,2.4,1.2,3.8
				c0.1,1.4,0.1,2.7,0.1,4.1c0,1.1-0.1,2.1-0.4,3.2c-0.5,2.1-1.6,3.9-3.3,5.2c-1,0.7-2.1,1.3-3.3,1.8c-2.2,0.9-4.4,1.4-6.7,1.5
				c-1.5,0.1-3,0-4.5-0.2c-2.2-0.4-4.4-1.1-6.4-2.2c-1.8-1-3.4-2.3-4.7-3.9c-1.7-2.1-2.8-4.5-3.3-7.2c-0.4-2.4-0.3-4.8,0.3-7.1
				c0.6-2.2,1.6-4.2,3.3-5.8c1.3-1.3,2.8-2.3,4.5-3.1c2.7-1.2,5.6-2,8.5-2.4c2.2-0.3,4.5-0.5,6.7-0.6c1.7-0.1,3.3-0.1,5-0.2
				c1.9-0.1,3.7,0,5.7,0.4c1.7,0.3,3.3,0.8,4.8,1.6c1.9,1.1,3.5,2.6,4.8,4.4c1.5,2.1,2.5,4.4,3.4,6.8c0.8,2.4,1.5,4.8,2,7.3
				c0.6,2.9,1,5.8,1.2,8.7c0.1,2.7,0.1,5.4-0.4,8c-0.4,2.1-0.9,4.1-1.8,6.1c-1.7,4-4.3,7.2-7.7,9.8c-3.2,2.5-6.7,4.3-10.5,5.8
				c-2.1,0.8-4.2,1.4-6.3,2c-1.4,0.4-2.7,0.7-4.1,0.9c-1,0.1-2.1,0.2-3.1,0.3c-1.3,0.1-2.7,0.1-4,0c-1.3-0.2-2.7-0.4-4-0.7
				c-1.8-0.4-3.5-1.1-5.2-1.7c-5-1.9-9.8-4.3-14.3-7.2c-2.4-1.6-4.6-3.1-5.1-3.6c2.8,3.7,5.4,5.8,5.2,5.8c2.4,2.2,5.1,4.2,7.9,6
				c3.1,1.9,6.4,3.5,9.9,4.8c4.2,1.5,8.5,2.4,12.9,2.8c2.5,0.2,5.1,0.2,7.6,0c1.7-0.2,3.3-0.4,5-0.8c4.1-0.8,7.9-2.3,11.5-4.2
				c4.1-2.2,7.8-4.9,11-8.3c2.2-2.3,4.1-4.8,5.7-7.5c1.8-3,3.1-6.2,4-9.6c0.4-1.5,0.7-3.1,0.9-4.7c0.3-1.9,0.5-3.7,0.5-5.6
				C95.1,52.7,95.1,50.6,94.9,48.6z"/>
			<path class="st0" d="M45.3,55.7c0.1,0,0.1,0,0.1,0C45.4,55.7,45.4,55.7,45.3,55.7z"/>
		</g>
		<g id="Caracol_1_">
			<path id="caracol_x5F_trazado_1_" class="st1" d="M10.8,74.4c0.5,0.5,2.6,2,4.9,3.5c4.4,2.8,9.1,5.2,14,7
				c1.7,0.6,3.4,1.2,5.1,1.6c1.3,0.3,2.6,0.5,3.9,0.7c1.3,0.1,2.6,0.1,3.9,0c1-0.1,2-0.2,3-0.3c1.3-0.2,2.7-0.5,4-0.9
				c2.1-0.6,4.1-1.2,6.1-2c3.7-1.4,7.1-3.2,10.2-5.7c3.3-2.6,5.9-5.7,7.6-9.5c0.8-1.9,1.4-3.9,1.8-6c0.4-2.6,0.5-5.2,0.4-7.8
				c-0.1-2.9-0.6-5.7-1.2-8.5c-0.5-2.4-1.1-4.8-2-7.1c-0.8-2.3-1.9-4.6-3.3-6.6c-1.3-1.8-2.8-3.3-4.7-4.3c-1.5-0.8-3-1.3-4.7-1.6
				c-1.8-0.3-3.7-0.3-5.5-0.3c-1.6,0.1-3.2,0.1-4.9,0.2c-2.2,0.1-4.4,0.3-6.6,0.6c-2.9,0.4-5.6,1.2-8.3,2.4c-1.6,0.8-3.1,1.8-4.4,3
				c-1.6,1.6-2.7,3.5-3.3,5.7c-0.6,2.3-0.7,4.6-0.3,6.9c0.5,2.6,1.5,5,3.2,7.1c1.3,1.6,2.8,2.8,4.6,3.8c2,1.1,4.1,1.8,6.3,2.1
				c1.5,0.2,2.9,0.3,4.4,0.2c2.3-0.1,4.4-0.6,6.5-1.4c1.1-0.4,2.2-1,3.2-1.8c1.7-1.3,2.7-3,3.2-5.1c0.2-1,0.4-2.1,0.4-3.1
				c0-1.3,0-2.7-0.1-4s-0.5-2.6-1.2-3.7c-0.5-0.9-1.4-1.5-2.3-1.9c-1-0.5-2.2-0.7-3.3-0.8c-2.3-0.2-4.6-0.1-6.9,0.1
				c-1,0.1-2,0.2-3.1,0.3c-1.2,0.2-2.3,0.6-3.3,1.2c-0.8,0.5-1.3,1.2-1.7,2c-0.6,1.1-0.9,2.2-0.9,3.4c-0.2,3.8,1.2,7,4,9.6
				c1.2,1.1,2.6,1.9,4.3,2.1c0.4,0.1,1.4,0.1,1.7,0.2s-2.9,0.6-4.4,0.1c-1.8-0.5-3.2-1.6-4.3-3.1c-1.4-1.9-2.2-3.9-2.6-6.2
				c-0.2-1.3-0.4-2.6-0.3-3.9c0.1-1.7,0.5-3.2,1.4-4.6c0.8-1.2,1.8-2,3.1-2.6c1.3-0.7,2.7-1.1,4-1.4c1.8-0.4,3.7-0.8,5.6-1
				c1.3-0.1,2.6-0.3,3.9-0.2c1.7,0.1,3.4,0.3,5.1,0.9c2.2,0.8,4,2.3,5.3,4.2c1.2,1.7,1.9,3.5,2.5,5.5c0.5,1.6,0.9,3.2,1.2,4.9
				c0.4,2,0.5,3.9,0.4,5.9c-0.2,3.9-1.6,7.4-4.1,10.5c-2.1,2.6-4.7,4.6-7.5,6.2c-2.6,1.5-5.4,2.6-8.3,3.4c-1.7,0.5-3.5,0.9-5.2,1.1
				c-2,0.3-4,0.4-6.1,0.4c-4.6-0.1-8.8-1.2-12.9-3.4c-3.4-1.9-6.4-4.3-9-7.2c-3.4-4-6.1-8.7-7.9-14c-0.8-2.3-1.4-4.7-1.7-7.1
				c-0.4-2.4-0.5-4.8-0.4-7.2s0.5-4.8,1.1-7.2c0.8-3,2-5.9,3.6-8.7c1.5-2.7,3.4-5.1,5.5-7.3c3.5-3.6,7.7-6.3,12.4-8
				c2.3-0.8,4.7-1.4,7.1-1.8c1.7-0.3,3.4-0.5,5.1-0.6c2.2-0.1,4.4-0.2,6.6-0.1c2.3,0.1,4.5,0.2,6.7,0.4c1.7,0.1,3.5,0.3,5.2,0.5
				C59.8,4.4,62.9,5,65.9,6c2.1,0.7,4.1,1.6,6,2.8c3.3,2,6.1,4.6,8.5,7.5c2.9,3.5,5,7.4,6.6,11.6c1.2,3.1,2.1,6.3,2.7,9.6
				c0.4,2,0.7,4.1,0.9,6.1c0.1,1.3,0.2,2.7,0.3,4c0.2,2,0.2,4,0.1,5.9c0,1.8-0.2,3.7-0.5,5.5c-0.2,1.6-0.5,3.1-0.9,4.6
				c-0.9,3.3-2.2,6.4-3.9,9.4c-1.6,2.6-3.4,5.1-5.6,7.3c-3.2,3.3-6.7,6-10.7,8.1c-3.5,1.9-7.3,3.3-11.2,4.1
				c-1.6,0.3-3.3,0.6-4.9,0.7c-2.5,0.2-4.9,0.2-7.4,0c-4.3-0.4-8.5-1.3-12.6-2.8c-3.4-1.2-6.6-2.8-9.7-4.7c-2.8-1.7-5.3-3.7-7.8-5.9
				C16,80.2,13.6,78,10.8,74.4c-0.2,0-0.4-0.3-0.4-0.3S10.7,74.4,10.8,74.4z"/>
		</g>
	</g>
	<g>
		<g id="_x30_3UNLIMITED_1_">
			<path class="st2" d="M108.8,50.2V22.4h5.8c2.8,0,5,0.3,6.6,0.8c1.7,0.5,3.3,1.5,4.7,2.7c2.9,2.6,4.3,6,4.3,10.3
				s-1.5,7.7-4.5,10.3c-1.5,1.3-3.1,2.2-4.7,2.7c-1.5,0.5-3.7,0.8-6.5,0.8h-5.7V50.2z M113,46.2h1.9c1.9,0,3.4-0.2,4.7-0.6
				c1.2-0.4,2.4-1.1,3.4-2c2.1-1.9,3.1-4.3,3.1-7.3s-1-5.5-3.1-7.4c-1.8-1.7-4.5-2.5-8.1-2.5H113V46.2z"/>
			<path class="st2" d="M141.2,22.4v27.7H137V22.4H141.2z"/>
			<path class="st2" d="M148.3,50.2l5.8-29.8l9.5,21.6l9.9-21.6l5.2,29.8h-4.3l-2.7-16.7l-8.2,18l-8-18l-3,16.8L148.3,50.2
				L148.3,50.2z"/>
			<path class="st2" d="M201.5,26.4h-11.1V33h10.8v4h-10.8v9.3h11.1v3.9h-15.3V22.4h15.3V26.4z"/>
			<path class="st2" d="M236.9,26.6l-3.4,2c-0.6-1.1-1.2-1.8-1.8-2.2s-1.4-0.6-2.3-0.6c-1.2,0-2.1,0.3-2.9,1
				c-0.8,0.6-1.1,1.5-1.1,2.4c0,1.4,1,2.4,3,3.3l2.8,1.1c2.3,0.9,3.9,2,4.9,3.3s1.6,2.9,1.6,4.8c0,2.6-0.8,4.7-2.6,6.3
				c-1.7,1.7-3.8,2.5-6.4,2.5c-2.4,0-4.4-0.7-6-2.1c-1.5-1.4-2.5-3.4-2.9-6l4.2-0.9c0.2,1.6,0.5,2.8,1,3.4c0.9,1.2,2.1,1.8,3.8,1.8
				c1.3,0,2.4-0.4,3.3-1.3s1.3-2,1.3-3.3c0-0.5-0.1-1-0.2-1.5c-0.2-0.4-0.4-0.9-0.7-1.2c-0.3-0.4-0.7-0.7-1.2-1.1
				c-0.5-0.3-1.1-0.6-1.8-0.9l-2.7-1.1c-3.8-1.6-5.7-4-5.7-7c0-2.1,0.8-3.8,2.4-5.2c1.6-1.4,3.6-2.1,5.9-2.1
				C232.6,21.9,235.1,23.4,236.9,26.6z"/>
			<path class="st2" d="M248.4,22.4v16.7c0,2.4,0.4,4.1,1.2,5.2c1.2,1.6,2.8,2.4,4.9,2.4c2.1,0,3.8-0.8,4.9-2.4
				c0.8-1.1,1.2-2.8,1.2-5.2V22.4h4.2v17.9c0,2.9-0.9,5.3-2.7,7.2c-2,2.1-4.6,3.2-7.5,3.2c-2.9,0-5.5-1.1-7.5-3.2
				c-1.8-1.9-2.7-4.3-2.7-7.2V22.4H248.4z"/>
			<path class="st2" d="M293.3,23.9v5c-2.4-2-4.9-3-7.5-3c-2.9,0-5.3,1-7.2,3.1c-2,2-2.9,4.5-2.9,7.5c0,2.9,1,5.4,2.9,7.4
				c2,2,4.4,3,7.2,3c1.5,0,2.7-0.2,3.8-0.7c0.6-0.2,1.2-0.6,1.8-1c0.6-0.4,1.3-0.9,2-1.5v5c-2.4,1.4-4.9,2-7.5,2
				c-4,0-7.3-1.4-10.2-4.2c-2.8-2.8-4.2-6.2-4.2-10.1c0-3.5,1.2-6.7,3.5-9.5c2.9-3.4,6.6-5.1,11.2-5.1
				C288.6,21.9,291,22.6,293.3,23.9z"/>
			<path class="st2" d="M320.6,23.9v5c-2.4-2-4.9-3-7.5-3c-2.9,0-5.3,1-7.2,3.1c-2,2-2.9,4.5-2.9,7.5c0,2.9,1,5.4,2.9,7.4
				c2,2,4.4,3,7.2,3c1.5,0,2.7-0.2,3.8-0.7c0.6-0.2,1.2-0.6,1.8-1c0.6-0.4,1.3-0.9,2-1.5v5c-2.4,1.4-4.9,2-7.5,2
				c-4,0-7.3-1.4-10.2-4.2c-2.8-2.8-4.2-6.2-4.2-10.1c0-3.5,1.2-6.7,3.5-9.5c2.9-3.4,6.6-5.1,11.2-5.1
				C315.9,21.9,318.3,22.6,320.6,23.9z"/>
			<path class="st2" d="M342.7,26.4h-11.1V33h10.8v4h-10.8v9.3h11.1v3.9h-15.3V22.4h15.3V26.4z"/>
			<path class="st2" d="M365.3,26.6l-3.4,2c-0.6-1.1-1.2-1.8-1.8-2.2c-0.6-0.4-1.4-0.6-2.3-0.6c-1.2,0-2.1,0.3-2.9,1
				c-0.8,0.6-1.1,1.5-1.1,2.4c0,1.4,1,2.4,3,3.3l2.8,1.1c2.3,0.9,3.9,2,4.9,3.3s1.6,2.9,1.6,4.8c0,2.6-0.8,4.7-2.6,6.3
				c-1.7,1.7-3.8,2.5-6.4,2.5c-2.4,0-4.4-0.7-6-2.1c-1.5-1.4-2.5-3.4-2.9-6l4.2-0.9c0.2,1.6,0.5,2.8,1,3.4c0.9,1.2,2.1,1.8,3.8,1.8
				c1.3,0,2.4-0.4,3.3-1.3s1.3-2,1.3-3.3c0-0.5-0.1-1-0.2-1.5c-0.2-0.4-0.4-0.9-0.7-1.2c-0.3-0.4-0.7-0.7-1.2-1.1
				c-0.5-0.3-1.1-0.6-1.8-0.9l-2.7-1.1c-3.8-1.6-5.7-4-5.7-7c0-2.1,0.8-3.8,2.4-5.2s3.6-2.1,5.9-2.1C361,21.9,363.5,23.4,365.3,26.6
				z"/>
			<path class="st2" d="M388.2,26.6l-3.4,2c-0.6-1.1-1.2-1.8-1.8-2.2c-0.6-0.4-1.4-0.6-2.3-0.6c-1.2,0-2.1,0.3-2.9,1
				c-0.8,0.6-1.1,1.5-1.1,2.4c0,1.4,1,2.4,3,3.3l2.8,1.1c2.3,0.9,3.9,2,4.9,3.3s1.6,2.9,1.6,4.8c0,2.6-0.8,4.7-2.6,6.3
				c-1.7,1.7-3.8,2.5-6.4,2.5c-2.4,0-4.4-0.7-6-2.1c-1.5-1.4-2.5-3.4-2.9-6l4.2-0.9c0.2,1.6,0.5,2.8,1,3.4c0.9,1.2,2.1,1.8,3.8,1.8
				c1.3,0,2.4-0.4,3.3-1.3s1.3-2,1.3-3.3c0-0.5-0.1-1-0.2-1.5c-0.2-0.4-0.4-0.9-0.7-1.2c-0.3-0.4-0.7-0.7-1.2-1.1
				c-0.5-0.3-1.1-0.6-1.8-0.9l-2.7-1.1c-3.8-1.6-5.7-4-5.7-7c0-2.1,0.8-3.8,2.4-5.2s3.6-2.1,5.9-2.1
				C383.9,21.9,386.4,23.4,388.2,26.6z"/>
		</g>
		<g>
			<path class="st2" d="M111.6,61.4V71c0,1.4,0.2,2.4,0.7,3c0.7,0.9,1.6,1.4,2.8,1.4c1.2,0,2.1-0.5,2.8-1.4c0.4-0.6,0.7-1.6,0.7-3
				v-9.5h2.4v10.2c0,1.7-0.5,3-1.6,4.1c-1.2,1.2-2.6,1.8-4.3,1.8c-1.7,0-3.1-0.6-4.3-1.8c-1-1.1-1.6-2.5-1.6-4.1V61.4H111.6z"/>
			<path class="st2" d="M126.4,77.3v-17L138,72.4v-11h2.4v16.8l-11.6-12.1v11.1h-2.4V77.3z"/>
			<path class="st2" d="M148.3,61.4V75h4.7v2.2h-7.1V61.4H148.3z"/>
			<path class="st2" d="M159.3,61.4v15.9h-2.4V61.4H159.3z"/>
			<path class="st2" d="M164.2,77.3l3.3-17l5.4,12.3l5.6-12.3l3,17h-2.3l-1.5-9.6L172.9,78l-4.6-10.3l-1.7,9.6
				C166.6,77.3,164.2,77.3,164.2,77.3z"/>
			<path class="st2" d="M189,61.4v15.9h-2.4V61.4H189z"/>
			<path class="st2" d="M198.9,63.7v13.6h-2.4V63.7h-3.6v-2.2h9.7v2.2H198.9z"/>
			<path class="st2" d="M215.1,63.7h-6.4v3.8h6.2v2.2h-6.2V75h6.4v2.2h-8.7V61.4h8.7V63.7z"/>
			<path class="st2" d="M219.9,77.3V61.4h3.3c1.6,0,2.9,0.2,3.8,0.5c1,0.3,1.9,0.8,2.7,1.6c1.6,1.5,2.5,3.5,2.5,5.9
				s-0.9,4.4-2.6,5.9c-0.9,0.8-1.8,1.3-2.7,1.6c-0.9,0.3-2.1,0.4-3.7,0.4H219.9z M222.3,75h1.1c1.1,0,2-0.1,2.7-0.3
				c0.7-0.2,1.4-0.6,1.9-1.1c1.2-1.1,1.8-2.5,1.8-4.2s-0.6-3.1-1.7-4.2c-1-1-2.6-1.4-4.6-1.4h-1.1L222.3,75L222.3,75z"/>
			<path class="st2" d="M247.4,61.4V75h4.7v2.2H245V61.4H247.4z"/>
			<path class="st2" d="M266.3,73.4h-6.8l-1.8,3.8h-2.6l7.8-16.8l7.6,16.8h-2.6L266.3,73.4z M265.3,71.2l-2.4-5.4l-2.5,5.4H265.3z"
				/>
			<path class="st2" d="M274.2,77.3v-17l11.6,12.1v-11h2.4v16.8l-11.6-12.1v11.1L274.2,77.3L274.2,77.3z"/>
			<path class="st2" d="M301.9,69h6.6v0.5c0,1.2-0.1,2.2-0.4,3.2c-0.3,0.8-0.7,1.6-1.4,2.4c-1.5,1.7-3.3,2.5-5.6,2.5
				c-2.2,0-4.1-0.8-5.7-2.4s-2.4-3.5-2.4-5.8s0.8-4.3,2.4-5.9s3.6-2.4,5.9-2.4c1.2,0,2.4,0.3,3.5,0.8c1,0.5,2,1.3,3,2.5l-1.7,1.6
				c-1.3-1.7-2.9-2.6-4.8-2.6c-1.7,0-3.1,0.6-4.2,1.7s-1.7,2.6-1.7,4.3c0,1.8,0.6,3.2,1.9,4.4c1.2,1.1,2.5,1.6,3.8,1.6
				c1.2,0,2.2-0.4,3.2-1.2c0.9-0.8,1.5-1.8,1.6-2.9h-4L301.9,69L301.9,69z"/>
			<path class="st2" d="M315.6,61.4V71c0,1.4,0.2,2.4,0.7,3c0.7,0.9,1.6,1.4,2.8,1.4c1.2,0,2.1-0.5,2.8-1.4c0.4-0.6,0.7-1.6,0.7-3
				v-9.5h2.4v10.2c0,1.7-0.5,3-1.6,4.1c-1.2,1.2-2.6,1.8-4.3,1.8c-1.7,0-3.1-0.6-4.3-1.8c-1-1.1-1.6-2.5-1.6-4.1V61.4H315.6z"/>
			<path class="st2" d="M339,73.4h-6.8l-1.8,3.8h-2.6l7.8-16.8l7.6,16.8h-2.6L339,73.4z M338.1,71.2l-2.4-5.4l-2.5,5.4H338.1z"/>
			<path class="st2" d="M354.4,69h6.6v0.5c0,1.2-0.1,2.2-0.4,3.2c-0.3,0.8-0.7,1.6-1.4,2.4c-1.5,1.7-3.3,2.5-5.6,2.5
				c-2.2,0-4.1-0.8-5.7-2.4s-2.4-3.5-2.4-5.8s0.8-4.3,2.4-5.9s3.6-2.4,5.9-2.4c1.2,0,2.4,0.3,3.5,0.8c1,0.5,2,1.3,3,2.5l-1.7,1.6
				c-1.3-1.7-2.9-2.6-4.8-2.6c-1.7,0-3.1,0.6-4.2,1.7s-1.7,2.6-1.7,4.3c0,1.8,0.6,3.2,1.9,4.4c1.2,1.1,2.5,1.6,3.8,1.6
				c1.2,0,2.2-0.4,3.2-1.2c0.9-0.8,1.5-1.8,1.6-2.9h-4L354.4,69L354.4,69z"/>
			<path class="st2" d="M374.4,63.7H368v3.8h6.2v2.2H368V75h6.4v2.2h-8.7V61.4h8.7V63.7z"/>
			<path class="st2" d="M388.2,63.8l-1.9,1.1c-0.4-0.6-0.7-1-1-1.2s-0.8-0.3-1.3-0.3c-0.7,0-1.2,0.2-1.7,0.6
				c-0.4,0.4-0.7,0.8-0.7,1.4c0,0.8,0.6,1.4,1.7,1.9l1.6,0.6c1.3,0.5,2.2,1.2,2.8,1.9c0.6,0.7,0.9,1.7,0.9,2.8
				c0,1.5-0.5,2.7-1.5,3.6c-1,1-2.2,1.4-3.6,1.4s-2.5-0.4-3.4-1.2c-0.9-0.8-1.4-2-1.7-3.4l2.4-0.5c0.1,0.9,0.3,1.6,0.6,1.9
				c0.5,0.7,1.2,1,2.2,1c0.7,0,1.4-0.2,1.9-0.7s0.7-1.1,0.7-1.9c0-0.3,0-0.6-0.1-0.8c-0.1-0.3-0.2-0.5-0.4-0.7
				c-0.2-0.2-0.4-0.4-0.7-0.6c-0.3-0.2-0.6-0.4-1-0.5l-1.5-0.6c-2.2-0.9-3.3-2.3-3.3-4c0-1.2,0.5-2.2,1.4-3s2-1.2,3.4-1.2
				C385.7,61.1,387.2,62,388.2,63.8z"/>
		</g>
	</g>
</g>
</svg>
