<?xml version="1.0" encoding="utf-8"?>
<!-- Generator: Adobe Illustrator 24.2.1, SVG Export Plug-In . SVG Version: 6.00 Build 0)  -->
<svg version="1.1" id="Capa_1" xmlns="http://www.w3.org/2000/svg" xmlns:xlink="http://www.w3.org/1999/xlink" x="0px" y="0px"
	 viewBox="0 0 401 108" style="enable-background:new 0 0 401 108;" xml:space="preserve">
<style type="text/css">
	.st0{fill:#FC8C25;}
	.st1{fill:#FFFFFF;stroke:#FFFFFF;stroke-miterlimit:10;}
	.st2{fill:#FFFFFF;}
	.st3{fill:url(#SVGID_1_);}
</style>
<path class="st0" d="M97,27.8C89.8,17,78.8,9.5,65.9,6.9C53.1,4.2,40,6.7,29,13.8C18.6,20.5,11.3,30.6,8.3,42.4
	c-2.7,17,8.6,33.2,25.8,36.8c9.9,2,19.6-1.9,25.4-9.3c0,0.1,0,0.2-0.1,0.3c7.1-7.8,8.9-18.3,3.8-26c-3-4.6-8-7.3-13.6-8.1
	c-1.3-0.3-2.7-0.4-4.1-0.2c-1.1,0-2.1,0.1-3.2,0.3c-0.1,0-0.1,0-0.2,0l0,0c-1.7,0.4-3.3,1-4.9,2C30.7,42.4,28.8,51,33,57.4
	c3.2,4.8,8.9,7,14.4,5.9c-3.7-0.8-6.6-4.1-6.6-8.1c0-4.5,3.7-8.2,8.2-8.2s8.2,3.7,8.2,8.2c0,0.5,0,0.9-0.1,1.4
	c0.1-0.1,0.2-0.1,0.2-0.1c-1.8,8.6-10.3,14.1-19,12.3C28,66.7,21.4,56.7,23.5,46.5c2.6-12.2,14.7-20,27-17.5
	c15,3.1,24.6,17.6,21.5,32.3c-3.8,17.8-21.5,29.3-39.6,25.6c-8.2-1.7-15.2-5.7-20.7-11.2c0.9,1.8,1.9,3.5,3,5.2
	c7.2,10.9,18.2,18.3,31.1,20.9c26.5,5.5,52.6-11.4,58.1-37.6C106.6,51.6,104.2,38.7,97,27.8z"/>
<g>
	<g id="_x30_3UNLIMITED_1_">
		<path class="st1" d="M115,55.3V27.5h5.8c2.8,0,5,0.3,6.6,0.8c1.7,0.5,3.3,1.5,4.7,2.7c2.9,2.6,4.3,6,4.3,10.3s-1.5,7.7-4.5,10.3
			c-1.5,1.3-3.1,2.2-4.7,2.7c-1.5,0.5-3.7,0.8-6.5,0.8H115V55.3z M119.2,51.3h1.9c1.9,0,3.4-0.2,4.7-0.6c1.2-0.4,2.4-1.1,3.4-2
			c2.1-1.9,3.1-4.3,3.1-7.3s-1-5.5-3.1-7.4c-1.8-1.7-4.5-2.5-8.1-2.5h-1.9V51.3z"/>
		<path class="st1" d="M147.4,27.5v27.7h-4.2V27.5H147.4z"/>
		<path class="st1" d="M154.5,55.3l5.8-29.8l9.5,21.6l9.9-21.6l5.2,29.8h-4.3l-2.7-16.7l-8.2,18l-8-18l-3,16.8L154.5,55.3
			L154.5,55.3z"/>
		<path class="st1" d="M207.7,31.5h-11.1v6.6h10.8v4h-10.8v9.3h11.1v3.9h-15.3V27.5h15.3V31.5z"/>
		<path class="st1" d="M243.1,31.7l-3.4,2c-0.6-1.1-1.2-1.8-1.8-2.2s-1.4-0.6-2.3-0.6c-1.2,0-2.1,0.3-2.9,1
			c-0.8,0.6-1.1,1.5-1.1,2.4c0,1.4,1,2.4,3,3.3l2.8,1.1c2.3,0.9,3.9,2,4.9,3.3s1.6,2.9,1.6,4.8c0,2.6-0.8,4.7-2.6,6.3
			c-1.7,1.7-3.8,2.5-6.4,2.5c-2.4,0-4.4-0.7-6-2.1c-1.5-1.4-2.5-3.4-2.9-6l4.2-0.9c0.2,1.6,0.5,2.8,1,3.4c0.9,1.2,2.1,1.8,3.8,1.8
			c1.3,0,2.4-0.4,3.3-1.3s1.3-2,1.3-3.3c0-0.5-0.1-1-0.2-1.5c-0.2-0.4-0.4-0.9-0.7-1.2c-0.3-0.4-0.7-0.7-1.2-1.1
			c-0.5-0.3-1.1-0.6-1.8-0.9l-2.7-1.1c-3.8-1.6-5.7-4-5.7-7c0-2.1,0.8-3.8,2.4-5.2c1.6-1.4,3.6-2.1,5.9-2.1
			C238.8,27,241.3,28.5,243.1,31.7z"/>
		<path class="st1" d="M254.6,27.5v16.7c0,2.4,0.4,4.1,1.2,5.2c1.2,1.6,2.8,2.4,4.9,2.4s3.8-0.8,4.9-2.4c0.8-1.1,1.2-2.8,1.2-5.2
			V27.5h4.2v17.9c0,2.9-0.9,5.3-2.7,7.2c-2,2.1-4.6,3.2-7.5,3.2s-5.5-1.1-7.5-3.2c-1.8-1.9-2.7-4.3-2.7-7.2V27.5H254.6z"/>
		<path class="st1" d="M299.5,29v5c-2.4-2-4.9-3-7.5-3c-2.9,0-5.3,1-7.2,3.1c-2,2-2.9,4.5-2.9,7.5c0,2.9,1,5.4,2.9,7.4
			c2,2,4.4,3,7.2,3c1.5,0,2.7-0.2,3.8-0.7c0.6-0.2,1.2-0.6,1.8-1c0.6-0.4,1.3-0.9,2-1.5v5c-2.4,1.4-4.9,2-7.5,2
			c-4,0-7.3-1.4-10.2-4.2c-2.8-2.8-4.2-6.2-4.2-10.1c0-3.5,1.2-6.7,3.5-9.5c2.9-3.4,6.6-5.1,11.2-5.1C294.8,27,297.2,27.7,299.5,29z
			"/>
		<path class="st1" d="M326.8,29v5c-2.4-2-4.9-3-7.5-3c-2.9,0-5.3,1-7.2,3.1c-2,2-2.9,4.5-2.9,7.5c0,2.9,1,5.4,2.9,7.4
			c2,2,4.4,3,7.2,3c1.5,0,2.7-0.2,3.8-0.7c0.6-0.2,1.2-0.6,1.8-1c0.6-0.4,1.3-0.9,2-1.5v5c-2.4,1.4-4.9,2-7.5,2
			c-4,0-7.3-1.4-10.2-4.2c-2.8-2.8-4.2-6.2-4.2-10.1c0-3.5,1.2-6.7,3.5-9.5c2.9-3.4,6.6-5.1,11.2-5.1C322.1,27,324.5,27.7,326.8,29z
			"/>
		<path class="st1" d="M348.9,31.5h-11.1v6.6h10.8v4h-10.8v9.3h11.1v3.9h-15.3V27.5h15.3V31.5z"/>
		<path class="st1" d="M371.5,31.7l-3.4,2c-0.6-1.1-1.2-1.8-1.8-2.2c-0.6-0.4-1.4-0.6-2.3-0.6c-1.2,0-2.1,0.3-2.9,1
			c-0.8,0.6-1.1,1.5-1.1,2.4c0,1.4,1,2.4,3,3.3l2.8,1.1c2.3,0.9,3.9,2,4.9,3.3s1.6,2.9,1.6,4.8c0,2.6-0.8,4.7-2.6,6.3
			c-1.7,1.7-3.8,2.5-6.4,2.5c-2.4,0-4.4-0.7-6-2.1c-1.5-1.4-2.5-3.4-2.9-6l4.2-0.9c0.2,1.6,0.5,2.8,1,3.4c0.9,1.2,2.1,1.8,3.8,1.8
			c1.3,0,2.4-0.4,3.3-1.3s1.3-2,1.3-3.3c0-0.5-0.1-1-0.2-1.5c-0.2-0.4-0.4-0.9-0.7-1.2c-0.3-0.4-0.7-0.7-1.2-1.1
			c-0.5-0.3-1.1-0.6-1.8-0.9l-2.7-1.1c-3.8-1.6-5.7-4-5.7-7c0-2.1,0.8-3.8,2.4-5.2s3.6-2.1,5.9-2.1C367.2,27,369.7,28.5,371.5,31.7z
			"/>
		<path class="st1" d="M394.4,31.7l-3.4,2c-0.6-1.1-1.2-1.8-1.8-2.2c-0.6-0.4-1.4-0.6-2.3-0.6c-1.2,0-2.1,0.3-2.9,1
			c-0.8,0.6-1.1,1.5-1.1,2.4c0,1.4,1,2.4,3,3.3l2.8,1.1c2.3,0.9,3.9,2,4.9,3.3s1.6,2.9,1.6,4.8c0,2.6-0.8,4.7-2.6,6.3
			c-1.7,1.7-3.8,2.5-6.4,2.5c-2.4,0-4.4-0.7-6-2.1c-1.5-1.4-2.5-3.4-2.9-6l4.2-0.9c0.2,1.6,0.5,2.8,1,3.4c0.9,1.2,2.1,1.8,3.8,1.8
			c1.3,0,2.4-0.4,3.3-1.3s1.3-2,1.3-3.3c0-0.5-0.1-1-0.2-1.5c-0.2-0.4-0.4-0.9-0.7-1.2c-0.3-0.4-0.7-0.7-1.2-1.1
			c-0.5-0.3-1.1-0.6-1.8-0.9l-2.7-1.1c-3.8-1.6-5.7-4-5.7-7c0-2.1,0.8-3.8,2.4-5.2s3.6-2.1,5.9-2.1C390.1,27,392.6,28.5,394.4,31.7z
			"/>
	</g>
	<g>
		<path class="st2" d="M117.8,66.5v9.6c0,1.4,0.2,2.4,0.7,3c0.7,0.9,1.6,1.4,2.8,1.4c1.2,0,2.1-0.5,2.8-1.4c0.4-0.6,0.7-1.6,0.7-3
			v-9.5h2.4v10.2c0,1.7-0.5,3-1.6,4.1c-1.2,1.2-2.6,1.8-4.3,1.8c-1.7,0-3.1-0.6-4.3-1.8c-1-1.1-1.6-2.5-1.6-4.1V66.5H117.8z"/>
		<path class="st2" d="M132.6,82.4v-17l11.6,12.1v-11h2.4v16.8L135,71.2v11.1h-2.4V82.4z"/>
		<path class="st2" d="M154.5,66.5v13.6h4.7v2.2h-7.1V66.5H154.5z"/>
		<path class="st2" d="M165.5,66.5v15.9h-2.4V66.5H165.5z"/>
		<path class="st2" d="M170.4,82.4l3.3-17l5.4,12.3l5.6-12.3l3,17h-2.3l-1.5-9.6l-4.8,10.3l-4.6-10.3l-1.7,9.6
			C172.8,82.4,170.4,82.4,170.4,82.4z"/>
		<path class="st2" d="M195.2,66.5v15.9h-2.4V66.5H195.2z"/>
		<path class="st2" d="M205.1,68.8v13.6h-2.4V68.8h-3.6v-2.2h9.7v2.2H205.1z"/>
		<path class="st2" d="M221.3,68.8h-6.4v3.8h6.2v2.2h-6.2v5.3h6.4v2.2h-8.7V66.5h8.7V68.8z"/>
		<path class="st2" d="M226.1,82.4V66.5h3.3c1.6,0,2.9,0.2,3.8,0.5c1,0.3,1.9,0.8,2.7,1.6c1.6,1.5,2.5,3.5,2.5,5.9s-0.9,4.4-2.6,5.9
			c-0.9,0.8-1.8,1.3-2.7,1.6c-0.9,0.3-2.1,0.4-3.7,0.4H226.1z M228.5,80.1h1.1c1.1,0,2-0.1,2.7-0.3c0.7-0.2,1.4-0.6,1.9-1.1
			c1.2-1.1,1.8-2.5,1.8-4.2s-0.6-3.1-1.7-4.2c-1-1-2.6-1.4-4.6-1.4h-1.1L228.5,80.1L228.5,80.1z"/>
		<path class="st2" d="M253.6,66.5v13.6h4.7v2.2h-7.1V66.5H253.6z"/>
		<path class="st2" d="M272.5,78.5h-6.8l-1.8,3.8h-2.6l7.8-16.8l7.6,16.8h-2.6L272.5,78.5z M271.5,76.3l-2.4-5.4l-2.5,5.4H271.5z"/>
		<path class="st2" d="M280.4,82.4v-17L292,77.5v-11h2.4v16.8l-11.6-12.1v11.1L280.4,82.4L280.4,82.4z"/>
		<path class="st2" d="M308.1,74.1h6.6v0.5c0,1.2-0.1,2.2-0.4,3.2c-0.3,0.8-0.7,1.6-1.4,2.4c-1.5,1.7-3.3,2.5-5.6,2.5
			c-2.2,0-4.1-0.8-5.7-2.4s-2.4-3.5-2.4-5.8s0.8-4.3,2.4-5.9s3.6-2.4,5.9-2.4c1.2,0,2.4,0.3,3.5,0.8c1,0.5,2,1.3,3,2.5l-1.7,1.6
			c-1.3-1.7-2.9-2.6-4.8-2.6c-1.7,0-3.1,0.6-4.2,1.7s-1.7,2.6-1.7,4.3c0,1.8,0.6,3.2,1.9,4.4c1.2,1.1,2.5,1.6,3.8,1.6
			c1.2,0,2.2-0.4,3.2-1.2c0.9-0.8,1.5-1.8,1.6-2.9h-4L308.1,74.1L308.1,74.1z"/>
		<path class="st2" d="M321.8,66.5v9.6c0,1.4,0.2,2.4,0.7,3c0.7,0.9,1.6,1.4,2.8,1.4c1.2,0,2.1-0.5,2.8-1.4c0.4-0.6,0.7-1.6,0.7-3
			v-9.5h2.4v10.2c0,1.7-0.5,3-1.6,4.1c-1.2,1.2-2.6,1.8-4.3,1.8c-1.7,0-3.1-0.6-4.3-1.8c-1-1.1-1.6-2.5-1.6-4.1V66.5H321.8z"/>
		<path class="st2" d="M345.2,78.5h-6.8l-1.8,3.8H334l7.8-16.8l7.6,16.8h-2.6L345.2,78.5z M344.3,76.3l-2.4-5.4l-2.5,5.4H344.3z"/>
		<path class="st2" d="M360.6,74.1h6.6v0.5c0,1.2-0.1,2.2-0.4,3.2c-0.3,0.8-0.7,1.6-1.4,2.4c-1.5,1.7-3.3,2.5-5.6,2.5
			c-2.2,0-4.1-0.8-5.7-2.4s-2.4-3.5-2.4-5.8s0.8-4.3,2.4-5.9s3.6-2.4,5.9-2.4c1.2,0,2.4,0.3,3.5,0.8c1,0.5,2,1.3,3,2.5l-1.7,1.6
			c-1.3-1.7-2.9-2.6-4.8-2.6c-1.7,0-3.1,0.6-4.2,1.7s-1.7,2.6-1.7,4.3c0,1.8,0.6,3.2,1.9,4.4c1.2,1.1,2.5,1.6,3.8,1.6
			c1.2,0,2.2-0.4,3.2-1.2c0.9-0.8,1.5-1.8,1.6-2.9h-4L360.6,74.1L360.6,74.1z"/>
		<path class="st2" d="M380.6,68.8h-6.4v3.8h6.2v2.2h-6.2v5.3h6.4v2.2h-8.7V66.5h8.7V68.8z"/>
		<path class="st2" d="M394.4,68.9l-1.9,1.1c-0.4-0.6-0.7-1-1-1.2s-0.8-0.3-1.3-0.3c-0.7,0-1.2,0.2-1.7,0.6
			c-0.4,0.4-0.7,0.8-0.7,1.4c0,0.8,0.6,1.4,1.7,1.9l1.6,0.6c1.3,0.5,2.2,1.2,2.8,1.9c0.6,0.7,0.9,1.7,0.9,2.8c0,1.5-0.5,2.7-1.5,3.6
			c-1,1-2.2,1.4-3.6,1.4s-2.5-0.4-3.4-1.2c-0.9-0.8-1.4-2-1.7-3.4l2.4-0.5c0.1,0.9,0.3,1.6,0.6,1.9c0.5,0.7,1.2,1,2.2,1
			c0.7,0,1.4-0.2,1.9-0.7s0.7-1.1,0.7-1.9c0-0.3,0-0.6-0.1-0.8c-0.1-0.3-0.2-0.5-0.4-0.7c-0.2-0.2-0.4-0.4-0.7-0.6
			c-0.3-0.2-0.6-0.4-1-0.5l-1.5-0.6c-2.2-0.9-3.3-2.3-3.3-4c0-1.2,0.5-2.2,1.4-3s2-1.2,3.4-1.2C391.9,66.2,393.4,67.1,394.4,68.9z"
			/>
	</g>
</g>
<linearGradient id="SVGID_1_" gradientUnits="userSpaceOnUse" x1="71.9811" y1="93.2178" x2="36.5637" y2="12.4221" gradientTransform="matrix(1 0 0 -1 0 108)">
	<stop  offset="0.2224" style="stop-color:#3FCCFF"/>
	<stop  offset="0.7179" style="stop-color:#0075BE"/>
	<stop  offset="0.9944" style="stop-color:#005B97"/>
</linearGradient>
<path class="st3" d="M93.7,30.1c-7-10.5-17.6-17.7-30.1-20.3s-25.2-0.2-35.8,6.7C17.7,23,10.7,32.9,7.8,44.4
	c-2.6,16.4,8.3,32.2,25,35.6c9.5,2,18.9-1.9,24.6-9c0,0.1,0,0.2-0.1,0.3c6.9-7.6,8.6-17.7,3.7-25.2c-3-4.5-7.8-7.1-13.1-7.9
	c-1.3-0.3-2.6-0.3-3.9-0.2c-1,0-2.1,0.1-3.1,0.2c-0.1,0-0.1,0-0.2,0l0,0c-1.6,0.3-3.3,1-4.7,2c-6.4,4.2-8.2,12.5-4.2,18.6
	c3.1,4.7,8.6,6.8,13.9,5.7c-3.6-0.8-6.4-3.9-6.4-7.8c0-4.4,3.6-8,8-8s8,3.6,8,8c0,0.4,0,0.9-0.1,1.3c0.1-0.1,0.2-0.1,0.2-0.1
	c-1.8,8.3-10,13.6-18.4,11.9c-10-2.1-16.3-11.7-14.2-21.6C25.3,36.5,37,28.9,48.9,31.5c14.3,3,23.6,17,20.7,31.2
	C66,80,48.8,91,31.3,87.4c-7.9-1.6-14.8-5.5-20-10.8c0.9,1.8,1.9,3.4,3,5c6.9,10.5,17.6,17.7,30.1,20.3
	c25.6,5.3,50.9-11.1,56.3-36.3C103,53.2,100.6,40.7,93.7,30.1z"/>
</svg>
